<?xml version="1.0" standalone="no"?>
<!DOCTYPE svg PUBLIC "-//W3C//DTD SVG 20010904//EN"
 "http://www.w3.org/TR/2001/REC-SVG-20010904/DTD/svg10.dtd">
<svg version="1.0" xmlns="http://www.w3.org/2000/svg"
 width="3174.000000pt" height="3174.000000pt" viewBox="0 0 3174.000000 3174.000000"
 preserveAspectRatio="xMidYMid meet">
<metadata>
Created by potrace 1.14, written by Peter Selinger 2001-2017
</metadata>
<g transform="translate(0.000000,3174.000000) scale(0.100000,-0.100000)"
fill="#000000" stroke="none">
<path d="M9545 31567 c-37 -89 -76 -180 -86 -202 -9 -22 -33 -78 -52 -125
-105 -253 -441 -1036 -488 -1138 -16 -35 -29 -65 -29 -67 0 -4 -219 -498 -273
-615 -14 -30 -48 -107 -77 -170 -29 -63 -65 -142 -80 -175 -15 -33 -37 -82
-50 -110 -36 -80 -79 -172 -136 -293 -30 -62 -54 -114 -54 -116 0 -5 -165
-351 -194 -406 -13 -25 -59 -106 -103 -180 -44 -74 -115 -202 -158 -285 -103
-197 -184 -341 -251 -442 -92 -139 -293 -383 -316 -383 -13 0 -532 346 -776
517 -68 48 -133 93 -347 239 -121 84 -207 142 -570 389 -254 173 -1088 729
-1220 814 -55 35 -111 71 -125 81 -119 81 -1433 920 -1436 917 -4 -4 52 -168
171 -507 50 -142 114 -327 136 -395 11 -33 24 -69 29 -80 5 -11 21 -56 35
-100 15 -44 63 -183 107 -310 44 -126 89 -256 99 -287 23 -74 172 -440 234
-578 52 -117 151 -313 203 -405 19 -33 46 -80 60 -105 111 -199 354 -552 548
-798 47 -59 96 -120 109 -137 94 -119 275 -339 326 -396 34 -38 69 -77 78 -87
16 -19 159 -175 261 -287 30 -32 60 -64 65 -70 28 -32 215 -233 245 -264 19
-20 116 -122 215 -226 220 -232 1544 -1557 2085 -2087 398 -390 465 -455 954
-931 148 -144 310 -302 361 -352 51 -49 215 -209 365 -355 150 -146 308 -299
350 -340 437 -426 657 -640 738 -719 84 -81 224 -217 771 -750 151 -147 747
-730 915 -894 370 -363 2036 -2021 2036 -2026 0 -6 -122 -131 -799 -819 -234
-239 -488 -498 -565 -575 -1262 -1291 -3142 -3171 -3557 -3558 -20 -19 -107
-101 -194 -184 -199 -189 -216 -205 -370 -350 -70 -66 -144 -136 -165 -155
-32 -30 -207 -195 -320 -300 -20 -19 -95 -89 -165 -155 -70 -66 -133 -124
-139 -130 -7 -5 -48 -44 -92 -85 -44 -41 -115 -109 -160 -150 -89 -83 -361
-338 -410 -385 -18 -16 -87 -82 -155 -145 -206 -194 -253 -239 -609 -579 -235
-225 -922 -909 -1055 -1052 -170 -181 -210 -225 -275 -298 -36 -41 -72 -81
-81 -90 -13 -13 -176 -204 -283 -331 -164 -196 -663 -835 -761 -975 -115 -166
-309 -473 -338 -535 -4 -8 -15 -28 -25 -45 -26 -42 -79 -141 -152 -280 -34
-66 -90 -172 -123 -235 -48 -93 -215 -401 -447 -825 -15 -27 -42 -77 -60 -110
-56 -104 -162 -298 -185 -340 -13 -22 -147 -268 -298 -546 -152 -279 -287
-526 -300 -550 -47 -84 -150 -275 -185 -339 -19 -36 -52 -96 -74 -134 -21 -38
-37 -70 -35 -72 2 -2 37 24 79 59 41 34 155 127 253 207 97 80 191 157 208
172 30 25 284 232 377 308 43 35 464 381 595 489 39 31 187 153 330 270 228
187 283 232 365 301 10 8 35 29 56 45 21 17 83 67 138 113 56 46 110 90 120
99 132 108 683 508 1071 778 196 137 1101 742 1286 860 207 132 341 215 347
215 4 0 43 -49 87 -108 44 -59 82 -109 85 -112 3 -3 10 -12 15 -22 6 -9 109
-164 231 -345 238 -353 396 -602 506 -798 107 -190 250 -478 343 -690 7 -16
24 -55 38 -85 101 -224 287 -649 439 -999 98 -229 185 -429 192 -446 12 -26
42 -98 81 -190 7 -16 26 -61 43 -100 109 -252 522 -1270 522 -1286 0 -19 27
-7 85 36 33 25 69 52 80 59 11 8 61 44 110 80 50 36 144 105 210 153 112 81
385 287 430 324 11 9 58 47 105 85 47 37 87 71 90 74 3 3 25 21 50 40 25 19
50 40 55 46 6 6 46 40 90 75 44 35 82 66 85 69 3 3 50 43 105 90 55 47 114 97
130 111 267 236 551 471 730 604 44 33 81 63 83 67 2 4 8 8 13 8 5 0 17 7 26
15 15 12 356 256 417 297 10 7 28 20 40 29 11 9 203 142 426 296 223 154 446
308 495 343 176 121 482 326 610 407 72 45 135 86 140 90 36 28 485 289 660
383 44 24 105 57 135 73 64 36 547 277 554 277 2 0 42 17 88 39 193 90 456
198 718 296 106 39 502 175 525 180 6 1 75 22 155 48 167 53 367 112 456 135
l62 15 153 -103 c85 -57 205 -140 267 -184 63 -45 124 -88 136 -96 12 -8 37
-27 56 -41 19 -14 80 -59 134 -99 55 -40 107 -79 115 -86 182 -145 237 -189
241 -194 3 -3 39 -33 80 -66 41 -32 80 -63 86 -69 27 -25 266 -220 272 -222 4
-2 96 150 205 336 219 375 373 601 528 776 15 17 58 66 95 110 115 134 128
144 172 135 20 -5 64 -11 97 -15 100 -12 106 -13 285 -44 176 -31 238 -44 510
-108 339 -79 956 -250 1055 -293 11 -5 63 -23 115 -40 134 -45 430 -155 484
-179 25 -12 47 -21 50 -21 16 0 446 -185 661 -285 99 -46 555 -273 627 -313
29 -16 105 -57 168 -92 334 -182 774 -440 1080 -632 96 -60 184 -115 194 -121
39 -24 554 -368 636 -425 327 -226 732 -541 960 -746 19 -17 132 -115 250
-216 118 -102 217 -187 220 -190 3 -3 102 -89 220 -190 118 -101 220 -189 226
-195 6 -5 37 -32 70 -60 32 -27 79 -68 104 -90 84 -73 174 -151 250 -216 41
-36 145 -125 230 -198 85 -74 182 -157 215 -186 33 -29 166 -143 295 -255 129
-111 249 -214 265 -229 17 -14 62 -53 100 -86 39 -33 72 -62 75 -65 3 -3 32
-28 65 -55 33 -28 65 -55 70 -61 13 -13 144 -125 170 -144 17 -13 17 -11 -3
20 -13 19 -37 59 -55 88 -49 83 -56 93 -322 526 -252 410 -331 539 -510 831
-54 88 -126 205 -160 260 -82 132 -319 518 -494 805 -46 74 -93 151 -105 170
-13 19 -54 87 -93 150 -39 63 -131 214 -205 335 -144 234 -190 319 -286 535
-107 242 -214 463 -272 565 -13 22 -43 76 -68 120 -64 115 -158 265 -291 463
-158 236 -204 303 -360 512 -129 174 -470 611 -491 630 -3 3 -18 21 -34 40
-131 161 -432 507 -610 699 -208 223 -711 731 -1087 1096 -91 88 -291 282
-445 431 -153 150 -324 315 -379 369 -597 577 -3372 3343 -4090 4076 -1001
1021 -1398 1422 -3061 3095 -254 255 -467 471 -474 479 -11 13 13 41 163 193
97 97 229 232 294 298 65 67 290 297 500 510 210 214 439 448 510 520 70 73
279 287 464 475 438 447 485 495 799 820 333 344 1180 1190 1760 1759 414 406
893 885 1078 1079 451 470 1120 1144 1421 1431 84 80 183 174 220 210 77 73
321 305 384 364 59 54 339 321 402 381 79 76 326 310 360 340 224 205 834 802
1125 1102 228 236 371 389 624 673 18 19 74 85 125 145 52 61 97 112 100 115
8 6 195 235 328 400 274 341 641 855 907 1268 36 56 73 115 81 130 9 15 23 39
33 54 25 41 185 310 198 333 6 11 22 39 37 62 15 24 27 44 27 46 0 3 18 37 41
78 98 177 136 255 132 266 -3 7 5 43 16 80 21 70 109 376 116 403 7 29 66 235
85 300 20 68 212 739 236 825 7 28 53 190 102 360 49 171 88 312 86 314 -2 3
-47 -38 -100 -90 -110 -108 -122 -119 -384 -371 -371 -355 -677 -649 -754
-723 -45 -43 -409 -391 -470 -450 -12 -11 -66 -58 -121 -105 -55 -47 -102 -87
-105 -90 -11 -12 -300 -241 -400 -316 -96 -73 -330 -243 -468 -340 -154 -108
-700 -467 -742 -487 -8 -4 -46 -27 -85 -51 -313 -197 -568 -335 -875 -474 -36
-17 -99 -46 -140 -65 -84 -39 -480 -218 -550 -249 -74 -32 -101 -44 -183 -82
-43 -20 -80 -36 -82 -36 -3 0 -35 -14 -72 -31 -38 -17 -108 -49 -158 -71 -49
-22 -109 -48 -132 -59 -80 -36 -128 -57 -438 -194 -378 -168 -412 -183 -450
-200 -280 -126 -599 -253 -705 -280 -8 -2 -62 -17 -120 -34 -94 -26 -164 -42
-310 -72 -25 -5 -70 -11 -100 -14 -30 -3 -62 -8 -70 -10 -8 -2 -46 -6 -85 -10
-38 -3 -91 -8 -116 -10 -45 -5 -47 -4 -105 58 -32 34 -92 100 -133 147 -41 47
-77 87 -81 90 -4 4 -104 129 -224 280 -6 8 -34 47 -61 85 -27 39 -53 72 -57
73 -5 2 -8 8 -8 12 0 5 -20 37 -44 72 -98 141 -226 374 -324 588 -11 25 -68
143 -126 264 -97 200 -108 217 -123 205 -15 -12 -43 -37 -107 -94 -295 -266
-555 -494 -646 -566 -350 -277 -825 -611 -1306 -916 l-112 -71 -188 65 c-104
35 -200 68 -214 72 -14 5 -47 17 -75 29 -27 11 -77 30 -110 42 -33 13 -73 28
-90 35 -16 7 -88 36 -160 65 -71 30 -152 63 -180 76 -27 12 -93 41 -145 64
-195 85 -702 334 -902 443 -335 183 -580 321 -783 442 -44 26 -93 55 -110 65
-16 9 -91 54 -165 100 -74 45 -147 90 -162 99 -63 38 -341 213 -398 250 -82
54 -723 484 -780 524 -41 29 -144 102 -228 162 -85 61 -164 117 -175 125 -19
13 -290 212 -367 270 -312 232 -782 602 -1110 873 -52 44 -104 86 -115 95 -11
10 -50 42 -85 72 -36 30 -76 65 -90 76 -133 113 -673 576 -680 584 -12 12
-136 117 -146 123 -7 4 -37 -55 -79 -156z m980 -2226 c121 -95 229 -180 240
-188 10 -9 85 -66 165 -126 80 -60 156 -118 170 -129 89 -67 229 -170 379
-278 96 -69 196 -141 222 -160 90 -65 243 -171 419 -291 96 -65 186 -128 200
-139 14 -11 31 -20 38 -20 6 0 12 -4 12 -8 0 -5 10 -14 23 -21 33 -18 48 -27
226 -145 245 -161 483 -310 806 -503 160 -95 297 -177 305 -182 100 -62 561
-317 820 -455 98 -53 516 -261 640 -319 111 -52 232 -107 236 -107 2 0 28 -11
59 -25 30 -14 80 -36 110 -50 31 -14 61 -25 68 -25 12 0 -77 -45 -228 -115
-169 -78 -184 -85 -189 -85 -2 0 -33 -13 -68 -29 -35 -16 -92 -41 -128 -55
-36 -15 -74 -31 -85 -36 -72 -33 -547 -218 -575 -225 -8 -2 -40 -13 -70 -25
-30 -12 -62 -24 -70 -26 -8 -1 -130 -44 -270 -94 -301 -107 -622 -212 -682
-224 -13 -2 -59 -13 -103 -24 -72 -19 -193 -43 -285 -57 -19 -3 -46 -7 -60
-10 -14 -2 -52 -7 -85 -11 -33 -3 -73 -8 -90 -10 -194 -25 -667 -25 -910 0
-100 11 -279 33 -310 40 -11 2 -54 9 -95 16 -82 13 -235 42 -360 68 -30 6 -67
14 -83 16 -15 3 -35 7 -45 10 -9 3 -28 7 -42 10 -14 3 -36 7 -50 11 -14 3 -34
7 -45 9 -26 6 -285 66 -305 71 -8 2 -42 11 -75 20 -72 18 -63 16 -200 55 -60
18 -114 33 -120 34 -5 2 -17 5 -25 8 -8 3 -114 38 -235 77 -121 40 -249 83
-285 97 -36 14 -112 44 -170 66 -124 49 -451 190 -588 254 -101 48 -415 204
-420 209 -2 2 30 45 71 97 96 121 239 334 317 473 33 61 65 117 70 125 5 8 32
60 61 115 76 147 196 360 247 440 25 39 57 97 72 130 15 33 50 107 78 165 52
110 250 532 297 635 108 236 250 549 322 710 46 105 94 210 105 235 11 25 24
54 28 65 27 63 55 127 77 175 14 30 29 65 34 78 9 22 13 20 111 -61 57 -46
202 -162 323 -256z m14294 -2318 c-18 -21 -36 -40 -39 -43 -3 -3 -39 -43 -80
-90 -94 -107 -141 -159 -207 -229 -28 -31 -60 -66 -71 -78 -173 -201 -662
-691 -797 -800 -246 -197 -383 -264 -605 -292 -91 -12 -353 -2 -380 14 -3 2
-26 6 -51 9 -66 9 -527 141 -693 198 l-70 24 105 38 c199 73 754 312 1384 596
22 10 123 55 225 100 102 45 208 92 235 105 28 12 109 49 180 80 216 95 624
280 790 357 55 26 102 47 104 47 3 1 -11 -16 -30 -36z m-7426 -1429 c62 -14
119 -27 127 -29 20 -3 94 -18 100 -20 7 -1 101 -17 125 -20 11 -2 35 -6 53 -9
156 -28 370 -52 577 -64 160 -9 1201 -8 1457 1 l188 7 182 -153 c448 -374 766
-571 1203 -745 101 -40 176 -64 520 -167 105 -31 196 -58 203 -60 6 -3 -56
-71 -140 -152 -262 -256 -672 -668 -968 -973 -655 -675 -887 -909 -1485 -1495
-538 -526 -1334 -1322 -1665 -1664 -358 -369 -423 -436 -805 -826 -181 -186
-386 -394 -454 -464 -68 -69 -295 -301 -505 -514 -209 -214 -441 -450 -514
-525 -74 -76 -214 -218 -312 -318 l-178 -181 -635 631 c-1198 1191 -1684 1670
-2303 2273 -62 59 -239 232 -394 383 -155 151 -323 315 -374 364 -50 48 -215
209 -366 356 -151 148 -307 299 -346 337 -40 37 -203 196 -364 353 -161 157
-332 323 -380 370 -48 47 -219 213 -380 370 -160 157 -347 338 -413 403 -377
366 -952 933 -1476 1454 l-596 592 40 18 c50 23 101 53 192 115 l72 49 133
-72 c240 -130 767 -386 978 -476 38 -17 47 -20 135 -58 109 -48 414 -167 510
-199 28 -10 59 -22 70 -27 63 -28 669 -216 756 -234 9 -2 52 -13 95 -24 44
-11 135 -34 204 -50 105 -25 177 -41 385 -87 11 -2 30 -6 43 -8 12 -3 30 -7
40 -10 9 -3 28 -7 42 -10 34 -5 245 -45 300 -56 25 -5 79 -14 120 -20 41 -7
86 -13 100 -16 47 -7 255 -33 315 -39 33 -3 74 -8 90 -10 197 -26 788 -26
1055 0 114 12 208 23 285 35 33 5 78 12 100 15 305 44 693 152 1220 340 72 26
141 50 155 55 172 56 708 258 724 272 6 4 16 8 23 8 7 0 37 11 67 25 30 14 57
25 60 25 8 0 413 174 511 220 50 23 110 51 135 62 69 31 446 220 525 263 39
21 147 81 240 133 94 53 179 101 190 107 11 6 39 23 62 38 24 15 45 27 47 27
3 0 42 22 88 50 46 27 87 50 91 50 5 0 59 -12 120 -26z m-1718 -10718 c1879
-1892 1850 -1862 2854 -2887 250 -255 1149 -1158 1998 -2006 1449 -1449 1541
-1543 1511 -1544 -18 0 -44 -2 -58 -4 -14 -3 -43 -7 -65 -11 -22 -3 -53 -8
-70 -10 -51 -8 -272 -64 -338 -86 -260 -85 -556 -232 -832 -414 -97 -63 -432
-307 -445 -323 -3 -3 -60 -50 -128 -104 -67 -54 -190 -157 -273 -230 -84 -73
-165 -143 -181 -157 l-29 -25 -242 -1 c-223 -1 -475 -9 -572 -19 -22 -2 -71
-7 -110 -10 -38 -3 -88 -8 -110 -10 -22 -2 -65 -7 -95 -10 -30 -3 -66 -7 -80
-9 -14 -3 -47 -7 -75 -11 -27 -3 -77 -10 -110 -15 -33 -5 -78 -12 -100 -16
-22 -3 -96 -16 -164 -29 l-125 -22 -50 32 c-69 44 -420 256 -476 287 -25 14
-99 57 -165 95 -102 60 -260 148 -458 257 -320 176 -954 496 -983 496 -2 0
-29 12 -61 27 -32 15 -60 27 -63 28 -3 0 -21 8 -40 17 -63 29 -370 148 -383
148 -7 0 -17 4 -22 9 -25 23 -595 202 -862 271 -248 64 -686 155 -848 175 -66
8 -107 15 -125 20 -8 2 -42 6 -75 10 -33 3 -71 8 -85 10 -52 8 -125 16 -174
20 -28 3 -78 7 -111 11 -68 7 -103 10 -265 19 -63 4 -137 9 -165 11 -67 4
-652 4 -740 0 -116 -6 -298 -18 -325 -21 -14 -2 -59 -6 -100 -10 -41 -3 -86
-8 -100 -10 -14 -2 -47 -7 -75 -10 -27 -3 -68 -8 -90 -10 -22 -3 -58 -8 -80
-11 -22 -3 -65 -9 -95 -14 -30 -5 -71 -12 -90 -15 -19 -3 -46 -8 -60 -10 -14
-3 -36 -8 -50 -10 -14 -3 -41 -8 -60 -11 -19 -3 -43 -7 -52 -10 -10 -3 -30 -7
-45 -10 -89 -15 -397 -90 -553 -134 -233 -65 -548 -169 -865 -284 -55 -20
-127 -46 -160 -57 -33 -11 -73 -27 -90 -34 -16 -8 -104 -44 -195 -80 -368
-148 -855 -382 -1302 -623 -42 -23 -84 -42 -91 -42 -8 0 -36 10 -63 22 -27 12
-51 23 -54 23 -3 1 -15 5 -28 9 -22 7 -18 13 70 98 177 171 453 437 508 488
50 48 279 264 385 365 127 120 313 295 336 316 59 54 265 247 305 284 23 22
95 90 159 150 65 61 134 125 154 144 20 18 85 79 145 135 59 55 129 121 155
145 25 24 104 98 176 165 71 66 172 162 224 211 52 50 109 104 127 120 17 17
103 98 190 181 88 84 179 171 204 194 427 399 2144 2115 3480 3480 78 80 337
343 575 585 238 242 526 536 641 653 114 116 210 212 213 212 3 0 257 -254
566 -564z m-3321 -7260 c98 -4 192 -9 210 -11 17 -2 69 -6 116 -10 86 -6 147
-12 210 -20 19 -3 62 -7 95 -10 33 -3 67 -8 75 -10 8 -2 37 -7 64 -10 27 -3
59 -8 70 -10 12 -3 37 -7 56 -9 55 -7 113 -16 140 -22 14 -3 36 -8 50 -10 160
-28 453 -95 680 -157 185 -51 602 -190 705 -236 11 -5 36 -15 55 -22 235 -86
698 -308 1145 -549 50 -27 103 -55 119 -64 l30 -15 -25 -9 c-13 -5 -82 -31
-154 -57 -130 -47 -403 -155 -460 -180 -16 -8 -89 -39 -162 -69 -72 -31 -176
-77 -230 -102 -54 -25 -127 -60 -163 -76 -394 -185 -979 -505 -1390 -761 -80
-50 -257 -165 -395 -257 -276 -184 -292 -195 -746 -510 -59 -41 -127 -88 -151
-105 -682 -473 -1041 -729 -1217 -871 -157 -126 -328 -268 -395 -329 -9 -9
-46 -40 -196 -169 -201 -172 -291 -248 -294 -245 -1 2 -40 92 -86 199 -87 203
-282 653 -305 705 -8 17 -84 190 -170 385 -279 632 -407 897 -551 1142 -19 33
-34 61 -34 63 0 24 -531 855 -552 863 -4 2 -8 8 -8 12 0 15 -297 443 -312 448
-4 2 -8 8 -8 13 0 9 361 189 551 274 57 26 122 55 144 65 22 10 69 30 105 45
36 15 79 33 95 40 164 71 592 225 920 331 160 52 504 148 570 160 17 3 58 11
93 19 34 8 74 17 90 20 26 5 50 9 102 20 14 2 39 7 55 9 17 3 75 12 130 21
103 16 125 20 210 30 52 7 57 8 190 19 44 4 96 9 115 12 19 2 118 6 220 10
102 3 186 7 187 8 3 3 237 -2 407 -8z m10077 -420 c340 -40 760 -289 1268
-751 156 -142 517 -498 741 -729 l65 -68 -214 107 c-118 59 -242 119 -275 135
-34 15 -101 47 -151 70 -481 224 -1103 465 -1590 615 -66 20 -138 43 -160 50
-40 13 -407 112 -441 120 -85 17 -354 89 -354 94 0 3 15 15 33 26 17 11 48 30
67 42 102 64 269 153 288 153 6 0 12 4 12 9 0 5 10 11 23 14 12 3 60 20 107
37 106 39 223 67 315 76 39 4 71 8 73 9 4 3 143 -3 193 -9z"/>
</g>
</svg>
